<svg width="85" height="49" viewBox="0 0 85 49" fill="none" xmlns="http://www.w3.org/2000/svg">
<path d="M3.30222 44.8371C0.907689 41.3646 -0.23725 37.2106 0.0480717 33.0307V15.9694C-0.253987 11.7587 0.873645 7.56824 3.25572 4.04932C5.40966 1.33469 9.08994 -0.0150392 14.2966 0.00012638C19.5032 0.0152919 23.0285 1.20579 24.8725 3.57161C27.121 6.5034 28.2181 10.1283 27.964 13.7856V17.7893H18.341V13.4444C18.328 12.3011 18.227 11.1605 18.0388 10.0321C17.9225 9.21527 17.5393 8.45717 16.9464 7.87104C16.5804 7.56387 16.1555 7.33121 15.6965 7.18669C15.2375 7.04217 14.7537 6.98868 14.2733 7.02935C13.5835 6.9286 12.8786 7.03833 12.2548 7.34361C11.6309 7.64889 11.1183 8.1349 10.7867 8.73548C10.1756 10.333 9.90658 12.0365 9.99645 13.7401V35.3965C9.89041 37.1114 10.2011 38.8264 10.903 40.4011C11.2383 40.9692 11.736 41.429 12.3347 41.7241C12.9335 42.0191 13.6073 42.1365 14.2733 42.0618C14.9278 42.1523 15.5947 42.0384 16.1791 41.7361C16.7634 41.4338 17.2353 40.9586 17.5275 40.3784C18.0897 38.7778 18.3343 37.0869 18.248 35.3965V30.8468H27.871V34.7823C28.1543 38.4935 27.1467 42.1894 25.012 45.2693C22.9665 47.7716 19.4335 49 14.4128 49C9.39212 49 5.4639 47.6351 3.30222 44.8371Z" fill="#111111"/>
<path d="M40.4675 1H51.603L61 48H51.7439L50.076 37.6152H42.2764L40.397 47.9328H31L40.4675 1ZM49.0423 31.7067L46.0822 12.8171L43.1457 31.7067H49.0423Z" fill="#111111"/>
<path d="M67.556 8.0825H60V1H85V8.0825H77.5373V48H67.5326L67.556 8.0825Z" fill="#111111"/>
</svg>
