<svg viewBox="0 0 114 18" fill="none" xmlns="http://www.w3.org/2000/svg">
<path d="M1.28125 15V3.54688H2.79688V8.25H8.75V3.54688H10.2656V15H8.75V9.60156H2.79688V15H1.28125ZM15.7109 15V4.89844H11.9375V3.54688H21.0156V4.89844H17.2266V15H15.7109ZM22.5312 15V3.54688H24.8125L27.5234 11.6562C27.7734 12.4115 27.9557 12.9766 28.0703 13.3516C28.2005 12.9349 28.4036 12.3229 28.6797 11.5156L31.4219 3.54688H33.4609V15H32V5.41406L28.6719 15H27.3047L23.9922 5.25V15H22.5312ZM35.8438 15V3.54688H37.3594V13.6484H43V15H35.8438ZM46.5234 15L50.9219 3.54688H52.5547L57.2422 15H55.5156L54.1797 11.5312H49.3906L48.1328 15H46.5234ZM49.8281 10.2969H53.7109L52.5156 7.125C52.151 6.16146 51.8802 5.36979 51.7031 4.75C51.5573 5.48438 51.3516 6.21354 51.0859 6.9375L49.8281 10.2969ZM63.6875 11.9609L65.0703 12.1406C64.9193 13.0938 64.5312 13.8411 63.9062 14.3828C63.2865 14.9193 62.5234 15.1875 61.6172 15.1875C60.4818 15.1875 59.5677 14.8177 58.875 14.0781C58.1875 13.3333 57.8438 12.2682 57.8438 10.8828C57.8438 9.98698 57.9922 9.20312 58.2891 8.53125C58.5859 7.85938 59.0365 7.35677 59.6406 7.02344C60.25 6.6849 60.9115 6.51562 61.625 6.51562C62.526 6.51562 63.263 6.74479 63.8359 7.20312C64.4089 7.65625 64.776 8.30208 64.9375 9.14062L63.5703 9.35156C63.4401 8.79427 63.2083 8.375 62.875 8.09375C62.5469 7.8125 62.1484 7.67188 61.6797 7.67188C60.9714 7.67188 60.3958 7.92708 59.9531 8.4375C59.5104 8.94271 59.2891 9.74479 59.2891 10.8438C59.2891 11.9583 59.5026 12.7682 59.9297 13.2734C60.3568 13.7786 60.9141 14.0312 61.6016 14.0312C62.1536 14.0312 62.6146 13.862 62.9844 13.5234C63.3542 13.1849 63.5885 12.6641 63.6875 11.9609ZM71.6875 13.9766C71.1667 14.4193 70.6641 14.7318 70.1797 14.9141C69.7005 15.0964 69.1849 15.1875 68.6328 15.1875C67.7214 15.1875 67.0208 14.9661 66.5312 14.5234C66.0417 14.0755 65.7969 13.5052 65.7969 12.8125C65.7969 12.4062 65.888 12.0365 66.0703 11.7031C66.2578 11.3646 66.5 11.0938 66.7969 10.8906C67.099 10.6875 67.4375 10.5339 67.8125 10.4297C68.0885 10.3568 68.5052 10.2865 69.0625 10.2188C70.1979 10.0833 71.0339 9.92188 71.5703 9.73438C71.5755 9.54167 71.5781 9.41927 71.5781 9.36719C71.5781 8.79427 71.4453 8.39062 71.1797 8.15625C70.8203 7.83854 70.2865 7.67969 69.5781 7.67969C68.9167 7.67969 68.4271 7.79688 68.1094 8.03125C67.7969 8.26042 67.5651 8.66927 67.4141 9.25781L66.0391 9.07031C66.1641 8.48177 66.3698 8.00781 66.6562 7.64844C66.9427 7.28385 67.3568 7.00521 67.8984 6.8125C68.4401 6.61458 69.0677 6.51562 69.7812 6.51562C70.4896 6.51562 71.0651 6.59896 71.5078 6.76562C71.9505 6.93229 72.276 7.14323 72.4844 7.39844C72.6927 7.64844 72.8385 7.96615 72.9219 8.35156C72.9688 8.59115 72.9922 9.02344 72.9922 9.64844V11.5234C72.9922 12.8307 73.0208 13.6589 73.0781 14.0078C73.1406 14.3516 73.2604 14.6823 73.4375 15H71.9688C71.8229 14.7083 71.7292 14.3672 71.6875 13.9766ZM71.5703 10.8359C71.0599 11.0443 70.2943 11.2214 69.2734 11.3672C68.6953 11.4505 68.2865 11.5443 68.0469 11.6484C67.8073 11.7526 67.6224 11.9062 67.4922 12.1094C67.362 12.3073 67.2969 12.5286 67.2969 12.7734C67.2969 13.1484 67.4375 13.4609 67.7188 13.7109C68.0052 13.9609 68.4219 14.0859 68.9688 14.0859C69.5104 14.0859 69.9922 13.9688 70.4141 13.7344C70.8359 13.4948 71.1458 13.1693 71.3438 12.7578C71.4948 12.4401 71.5703 11.9714 71.5703 11.3516V10.8359ZM80.5625 15V13.9531C80.0365 14.776 79.263 15.1875 78.2422 15.1875C77.5807 15.1875 76.9714 15.0052 76.4141 14.6406C75.862 14.276 75.4323 13.7682 75.125 13.1172C74.8229 12.4609 74.6719 11.7083 74.6719 10.8594C74.6719 10.0312 74.8099 9.28125 75.0859 8.60938C75.362 7.93229 75.776 7.41406 76.3281 7.05469C76.8802 6.69531 77.4974 6.51562 78.1797 6.51562C78.6797 6.51562 79.125 6.6224 79.5156 6.83594C79.9062 7.04427 80.224 7.31771 80.4688 7.65625V3.54688H81.8672V15H80.5625ZM76.1172 10.8594C76.1172 11.9219 76.3411 12.7161 76.7891 13.2422C77.237 13.7682 77.7656 14.0312 78.375 14.0312C78.9896 14.0312 79.5104 13.7812 79.9375 13.2812C80.3698 12.776 80.5859 12.0078 80.5859 10.9766C80.5859 9.84115 80.3672 9.00781 79.9297 8.47656C79.4922 7.94531 78.9531 7.67969 78.3125 7.67969C77.6875 7.67969 77.1641 7.9349 76.7422 8.44531C76.3255 8.95573 76.1172 9.76042 76.1172 10.8594ZM89.7656 12.3281L91.2188 12.5078C90.9896 13.3568 90.5651 14.0156 89.9453 14.4844C89.3255 14.9531 88.5339 15.1875 87.5703 15.1875C86.3568 15.1875 85.3932 14.8151 84.6797 14.0703C83.9714 13.3203 83.6172 12.2708 83.6172 10.9219C83.6172 9.52604 83.9766 8.44271 84.6953 7.67188C85.4141 6.90104 86.3464 6.51562 87.4922 6.51562C88.6016 6.51562 89.5078 6.89323 90.2109 7.64844C90.9141 8.40365 91.2656 9.46615 91.2656 10.8359C91.2656 10.9193 91.263 11.0443 91.2578 11.2109H85.0703C85.1224 12.1224 85.3802 12.8203 85.8438 13.3047C86.3073 13.7891 86.8854 14.0312 87.5781 14.0312C88.0938 14.0312 88.5339 13.8958 88.8984 13.625C89.263 13.3542 89.5521 12.9219 89.7656 12.3281ZM85.1484 10.0547H89.7812C89.7188 9.35677 89.5417 8.83333 89.25 8.48438C88.8021 7.94271 88.2214 7.67188 87.5078 7.67188C86.862 7.67188 86.3177 7.88802 85.875 8.32031C85.4375 8.7526 85.1953 9.33073 85.1484 10.0547ZM92.9922 15V6.70312H94.25V7.86719C94.5104 7.46094 94.8568 7.13542 95.2891 6.89062C95.7214 6.64062 96.2135 6.51562 96.7656 6.51562C97.3802 6.51562 97.8828 6.64323 98.2734 6.89844C98.6693 7.15365 98.9479 7.51042 99.1094 7.96875C99.7656 7 100.62 6.51562 101.672 6.51562C102.495 6.51562 103.128 6.74479 103.57 7.20312C104.013 7.65625 104.234 8.35677 104.234 9.30469V15H102.836V9.77344C102.836 9.21094 102.789 8.80729 102.695 8.5625C102.607 8.3125 102.443 8.11198 102.203 7.96094C101.964 7.8099 101.682 7.73438 101.359 7.73438C100.776 7.73438 100.292 7.92969 99.9062 8.32031C99.5208 8.70573 99.3281 9.32552 99.3281 10.1797V15H97.9219V9.60938C97.9219 8.98438 97.8073 8.51562 97.5781 8.20312C97.349 7.89062 96.974 7.73438 96.4531 7.73438C96.0573 7.73438 95.6901 7.83854 95.3516 8.04688C95.0182 8.25521 94.776 8.5599 94.625 8.96094C94.474 9.36198 94.3984 9.9401 94.3984 10.6953V15H92.9922ZM106.258 18.1953L106.102 16.875C106.409 16.9583 106.677 17 106.906 17C107.219 17 107.469 16.9479 107.656 16.8438C107.844 16.7396 107.997 16.5938 108.117 16.4062C108.206 16.2656 108.349 15.9167 108.547 15.3594C108.573 15.2812 108.615 15.1667 108.672 15.0156L105.523 6.70312H107.039L108.766 11.5078C108.99 12.1172 109.19 12.7578 109.367 13.4297C109.529 12.7839 109.721 12.1536 109.945 11.5391L111.719 6.70312H113.125L109.969 15.1406C109.63 16.0521 109.367 16.6797 109.18 17.0234C108.93 17.487 108.643 17.8255 108.32 18.0391C107.997 18.2578 107.612 18.3672 107.164 18.3672C106.893 18.3672 106.591 18.3099 106.258 18.1953Z" fill="#444444"/>
</svg>
